<svg xmlns="http://www.w3.org/2000/svg" xmlns:xlink="http://www.w3.org/1999/xlink" width="500" height="377.66" viewBox="0 0 500 377.66">
  <defs>
    <clipPath id="clip-RB_-_2.B">
      <rect width="500" height="377.66"/>
    </clipPath>
  </defs>
  <g id="RB_-_2.B" data-name="RB - 2.B" clip-path="url(#clip-RB_-_2.B)">
    <g id="Grupo_2" data-name="Grupo 2" transform="translate(-1354.5 -478.61)">
      <path id="Trazado_29" data-name="Trazado 29" d="M450.222,140.328c-.186-.059-.372-.107-.559-.166l.005-.016L341.472,104.6l-3.314-1.091L301.727,91.54a18.67,18.67,0,0,0-11.553,35.508l-.553-.182a18.67,18.67,0,0,1-11.548,35.508l-45.819-15.054-3.309-1.091-16.564-5.442A18.67,18.67,0,0,0,200.834,176.3l16.558,5.442,2.208.727a18.67,18.67,0,0,1-11.548,35.508l-39.745-13.06-3.314-1.085-16.559-5.442a18.67,18.67,0,0,0-11.553,35.508l16.564,5.442,3.314,1.085,47.473,15.6a18.67,18.67,0,0,1-11.553,35.508l-2.208-.727-16.558-5.442a18.67,18.67,0,0,0-11.553,35.508l16.564,5.442,3.314,1.091,33.117,10.879a18.67,18.67,0,0,1-11.548,35.508l-6.622-2.176a18.67,18.67,0,0,0-11.553,35.508l36.436,11.97,3.314,1.091,120.34,39.539.005-.016c.181.064.362.139.548.2,87.8,28.847,182.25-19.3,210.952-107.551s-19.2-183.171-107.005-212.023m-95.1,294.235c-73.782-24.239-114.037-104.007-89.92-178.156S368.69,141.793,442.472,166.032s114.037,104.007,89.915,178.156S428.908,458.8,355.126,434.563" transform="translate(1287.649 388)" fill="#365d89"/>
      <path id="Trazado_30" data-name="Trazado 30" d="M160.541,169.287,126.318,158.1a18.585,18.585,0,1,1,11.548-35.33l34.223,11.186a18.585,18.585,0,1,1-11.548,35.33" transform="translate(1242 523.872)" fill="#365d89"/>
      <path id="Trazado_31" data-name="Trazado 31" d="M116.07,120.493A18.585,18.585,0,1,0,139.511,108.6a18.586,18.586,0,0,0-23.441,11.888" transform="translate(1249.099 462.233)" fill="#365d89"/>
      <path id="Trazado_32" data-name="Trazado 32" d="M189.824,145.71a13.358,13.358,0,1,0,18.2,5.053,13.363,13.363,0,0,0-18.2-5.053" transform="translate(1542.355 620.04)" fill="#fe8100"/>
      <path id="Trazado_33" data-name="Trazado 33" d="M175.647,114.116a23.811,23.811,0,1,0,32.447,9.005,23.81,23.81,0,0,0-32.447-9.005" transform="translate(1458.186 476.814)" fill="#fe8100"/>
    </g>
  </g>
</svg>
